<?xml version="1.0" standalone="no"?>
<!DOCTYPE svg PUBLIC "-//W3C//DTD SVG 20010904//EN"
 "http://www.w3.org/TR/2001/REC-SVG-20010904/DTD/svg10.dtd">
<svg version="1.0" xmlns="http://www.w3.org/2000/svg"
 width="512.000000pt" height="512.000000pt" viewBox="0 0 512.000000 512.000000"
 preserveAspectRatio="xMidYMid meet">

<g transform="translate(0.000000,512.000000) scale(0.100000,-0.100000)"
fill="#000000" stroke="none">
<path d="M800 4867 c-49 -16 -133 -102 -148 -153 -18 -60 -18 -4248 0 -4308
16 -55 99 -138 154 -154 32 -9 439 -12 1756 -12 1936 0 1773 -7 1851 80 24 26
49 66 55 88 17 57 17 4247 0 4304 -6 22 -31 62 -55 88 -78 87 86 80 -1857 79
-1224 -1 -1731 -4 -1756 -12z m3495 -172 l25 -24 0 -2111 0 -2111 -25 -24 -24
-25 -1711 0 -1711 0 -24 25 -25 24 0 2111 0 2111 25 24 24 25 1711 0 1711 0
24 -25z"/>
<path d="M1120 4547 c-49 -16 -133 -102 -148 -153 -17 -59 -17 -1689 0 -1748
16 -55 99 -138 154 -154 32 -9 370 -12 1436 -12 1577 0 1453 -6 1531 80 24 26
49 66 55 88 17 56 17 1688 0 1744 -6 22 -31 62 -55 88 -78 87 47 80 -1537 79
-991 -1 -1411 -4 -1436 -12z m2855 -172 l25 -24 0 -831 0 -831 -25 -25 -24
-24 -258 2 -257 3 -12 70 c-48 278 -249 538 -501 646 -26 11 -49 22 -52 24 -2
3 17 27 42 54 172 183 168 466 -10 652 -187 197 -499 197 -686 0 -178 -186
-182 -469 -10 -652 25 -27 44 -51 42 -53 -2 -2 -25 -13 -51 -24 -254 -111
-454 -369 -502 -647 l-12 -70 -257 -3 -258 -2 -24 24 -25 25 0 831 0 831 25
24 24 25 1391 0 1391 0 24 -25z m-1280 -326 c237 -112 246 -441 15 -568 -60
-33 -71 -36 -150 -36 -72 1 -93 5 -136 27 -75 39 -107 70 -143 137 -94 178
-13 385 179 455 63 23 170 16 235 -15z m89 -807 c120 -41 188 -84 281 -177
114 -114 184 -244 201 -374 l7 -51 -712 0 -711 0 0 29 c0 48 46 181 87 250 80
136 219 255 364 311 106 41 164 50 291 45 85 -3 124 -9 192 -33z"/>
<path d="M1225 2215 l-25 -24 0 -231 0 -231 25 -24 24 -25 231 0 231 0 24 25
25 24 0 231 0 231 -25 24 -24 25 -231 0 -231 0 -24 -25z m375 -255 l0 -120
-120 0 -120 0 0 120 0 120 120 0 120 0 0 -120z"/>
<path d="M1945 2215 l-25 -24 0 -231 0 -231 25 -24 24 -25 231 0 231 0 24 25
25 24 0 231 0 231 -25 24 -24 25 -231 0 -231 0 -24 -25z m375 -255 l0 -120
-120 0 -120 0 0 120 0 120 120 0 120 0 0 -120z"/>
<path d="M2665 2215 l-25 -24 0 -231 0 -231 25 -24 24 -25 231 0 231 0 24 25
25 24 0 231 0 231 -25 24 -24 25 -231 0 -231 0 -24 -25z m375 -255 l0 -120
-120 0 -120 0 0 120 0 120 120 0 120 0 0 -120z"/>
<path d="M3385 2215 l-25 -24 0 -231 0 -231 25 -24 24 -25 231 0 231 0 24 25
25 24 0 231 0 231 -25 24 -24 25 -231 0 -231 0 -24 -25z m375 -255 l0 -120
-120 0 -120 0 0 120 0 120 120 0 120 0 0 -120z"/>
<path d="M1785 1175 c-16 -15 -25 -36 -25 -55 0 -19 9 -40 25 -55 l24 -25 751
0 751 0 24 25 c33 32 33 78 0 110 l-24 25 -751 0 -751 0 -24 -25z"/>
<path d="M2185 775 c-16 -15 -25 -36 -25 -55 0 -19 9 -40 25 -55 l24 -25 351
0 351 0 24 25 c16 15 25 36 25 55 0 19 -9 40 -25 55 l-24 25 -351 0 -351 0
-24 -25z"/>
</g>
</svg>
