<?xml version="1.0" standalone="no"?>
<!DOCTYPE svg PUBLIC "-//W3C//DTD SVG 20010904//EN"
 "http://www.w3.org/TR/2001/REC-SVG-20010904/DTD/svg10.dtd">
<svg version="1.0" xmlns="http://www.w3.org/2000/svg"
 width="512.000000pt" height="512.000000pt" viewBox="0 0 512.000000 512.000000"
 preserveAspectRatio="xMidYMid meet">

<g transform="translate(0.000000,512.000000) scale(0.100000,-0.100000)"
fill="#000000" stroke="none">
<path d="M1664 4812 c-28 -10 -68 -31 -87 -48 -59 -48 -1006 -1232 -1035
-1293 -48 -104 -27 -238 51 -320 18 -18 181 -139 362 -269 182 -129 347 -248
367 -264 l37 -29 -146 -207 c-81 -114 -153 -224 -160 -245 -25 -71 3 -128 93
-192 36 -26 62 -51 57 -55 -113 -101 -261 -181 -402 -216 -79 -20 -131 -26
-298 -31 l-203 -6 0 182 c0 162 -2 186 -20 221 -23 45 -80 80 -130 80 -50 0
-107 -35 -130 -80 -20 -38 -20 -57 -20 -835 0 -778 0 -797 20 -835 23 -45 80
-80 130 -80 50 0 107 35 130 80 18 35 20 59 20 203 l0 163 233 12 c174 8 262
18 352 36 376 79 689 246 970 517 l91 88 84 -59 c94 -65 133 -78 189 -62 50
15 69 38 211 247 67 99 128 186 135 194 11 11 62 -22 307 -196 359 -258 352
-253 409 -253 53 0 73 12 218 129 l96 78 305 -218 c197 -142 316 -221 338
-225 46 -9 102 10 134 43 14 16 184 224 377 463 224 278 355 448 362 472 14
43 5 97 -20 129 -10 13 -93 75 -185 137 l-166 114 55 45 c30 24 62 57 70 73
21 40 19 109 -4 145 -12 20 -529 400 -1465 1075 -795 575 -1469 1058 -1497
1074 -66 38 -160 45 -235 18z m1509 -1301 c719 -519 1307 -947 1306 -950 -1
-14 -1192 -956 -1208 -955 -23 1 -2446 1735 -2445 1749 1 7 212 274 469 594
l467 581 52 -38 c28 -20 640 -462 1359 -981z m-1195 -1360 l352 -252 -93 -136
c-52 -74 -96 -136 -99 -137 -9 -2 -728 498 -728 507 0 7 101 156 168 245 13
18 30 31 36 29 7 -3 171 -118 364 -256z m2646 -53 c66 -44 123 -82 124 -84 5
-4 -501 -633 -510 -633 -4 -1 -95 62 -202 140 l-196 141 323 259 c177 142 326
258 331 259 5 0 63 -37 130 -82z m-3044 -455 l109 -76 -20 -25 c-69 -88 -279
-242 -443 -324 -221 -111 -438 -162 -744 -174 l-182 -7 0 150 0 150 203 6
c296 9 434 39 623 133 95 47 234 146 293 208 19 20 39 36 43 36 5 0 58 -34
118 -77z"/>
<path d="M3688 2839 c-43 -22 -78 -81 -78 -129 0 -17 9 -49 20 -70 23 -45 80
-80 130 -80 17 0 49 9 70 20 45 23 80 80 80 130 0 50 -35 107 -80 130 -49 25
-94 25 -142 -1z"/>
</g>
</svg>
