<?xml version="1.0" standalone="no"?>
<!DOCTYPE svg PUBLIC "-//W3C//DTD SVG 20010904//EN"
 "http://www.w3.org/TR/2001/REC-SVG-20010904/DTD/svg10.dtd">
<svg version="1.0" xmlns="http://www.w3.org/2000/svg"
 width="512.000000pt" height="512.000000pt" viewBox="0 0 512.000000 512.000000"
 preserveAspectRatio="xMidYMid meet">

<g transform="translate(0.000000,512.000000) scale(0.100000,-0.100000)"
fill="#000000" stroke="none">
<path d="M3567 4739 c-77 -18 -141 -69 -180 -143 -19 -36 -22 -60 -25 -203 -2
-90 -6 -163 -8 -163 -2 0 -111 75 -241 166 -131 91 -264 179 -295 195 -152 77
-361 78 -511 3 -80 -40 -1994 -1383 -2013 -1412 -23 -35 -30 -114 -14 -152 27
-65 117 -110 185 -91 18 5 469 314 1002 687 532 373 984 684 1003 690 47 18
129 17 179 -1 23 -8 361 -238 751 -511 l710 -497 0 -1077 c0 -1180 2 -1132
-59 -1218 -17 -22 -52 -53 -78 -69 l-48 -28 -490 -5 c-472 -5 -491 -6 -525
-26 -58 -34 -82 -79 -78 -145 5 -65 32 -109 82 -133 30 -14 92 -16 518 -16
539 0 556 2 682 67 92 48 199 154 244 243 70 139 66 69 72 1177 l5 1003 98
-69 c106 -74 140 -86 197 -71 76 20 120 77 120 152 0 78 -22 102 -226 245
l-189 133 -5 537 -5 538 -23 47 c-13 26 -42 64 -64 84 -76 68 -78 69 -423 71
-170 1 -327 -3 -348 -8z m538 -322 c3 -6 4 -171 3 -364 l-3 -352 -212 147
-212 147 -1 218 0 217 210 0 c160 0 212 -3 215 -13z"/>
<path d="M690 2709 c-89 -36 -129 -153 -77 -229 43 -64 65 -73 199 -82 245
-16 449 -71 650 -175 473 -245 797 -741 824 -1263 8 -152 16 -180 63 -223 54
-49 106 -56 169 -25 76 37 92 72 92 192 -1 323 -116 691 -306 976 -82 123
-157 212 -276 325 -300 288 -669 458 -1090 504 -119 13 -215 13 -248 0z"/>
<path d="M575 1876 c-42 -18 -83 -69 -91 -112 -20 -108 60 -193 183 -194 225
-1 473 -126 620 -314 103 -131 158 -277 174 -460 9 -110 26 -148 79 -183 66
-45 170 -22 217 47 20 28 23 46 23 119 0 466 -329 907 -785 1055 -158 51 -355
71 -420 42z"/>
<path d="M612 1052 c-71 -26 -121 -68 -154 -132 -58 -109 -27 -253 71 -327
137 -105 322 -63 404 91 31 58 31 174 0 232 -64 121 -200 179 -321 136z"/>
</g>
</svg>
